<?xml version="1.0" encoding="utf-8"?>
<!-- Generator: Adobe Illustrator 15.1.0, SVG Export Plug-In . SVG Version: 6.00 Build 0)  -->
<!DOCTYPE svg PUBLIC "-//W3C//DTD SVG 1.1//EN" "http://www.w3.org/Graphics/SVG/1.1/DTD/svg11.dtd">
<svg version="1.1" id="Layer_1" xmlns:svg="http://www.w3.org/2000/svg"
	 xmlns="http://www.w3.org/2000/svg" xmlns:xlink="http://www.w3.org/1999/xlink" x="0px" y="0px" width="733px" height="518px"
	 viewBox="0 0 733 518" enable-background="new 0 0 733 518" xml:space="preserve">
<title>Layer 1</title>
<g id="svg_1">
	<g id="svg_2">
		<g id="svg_3">
			<g>
				<defs>
					<polygon id="SVGID_1_" points="0,506.129 0,0 344.85,74.331 344.85,431.799 					"/>
				</defs>
				<clipPath id="SVGID_2_">
					<use xlink:href="#SVGID_1_"  overflow="visible"/>
				</clipPath>
				<g id="svg_5" clip-path="url(#SVGID_2_)">
					<g id="svg_6">
						<g id="svg_7">
							<g id="svg_8">
								<path id="svg_9" fill="#414042" d="M202.157,314.424c-6.958,0.438-13.68-0.915-19.875-3.771
									c-6.274-2.893-11.992-7.316-16.846-12.958c-4.9-5.695-8.901-12.61-11.685-20.394c-2.799-7.825-4.353-16.491-4.353-25.614
									c0-9.121,1.554-17.78,4.353-25.597c2.784-7.774,6.785-14.677,11.685-20.359c4.854-5.627,10.572-10.037,16.846-12.912
									c6.195-2.839,12.917-4.174,19.875-3.716c6.861,0.452,13.308,2.605,19.098,6.083c5.719,3.437,10.812,8.176,15.046,13.87
									c4.197,5.643,7.565,12.242,9.878,19.477c2.302,7.199,3.57,15.061,3.57,23.288c0,8.229-1.268,16.089-3.57,23.283
									c-2.313,7.229-5.682,13.821-9.878,19.453c-4.234,5.684-9.327,10.408-15.046,13.83
									C215.465,311.855,209.018,313.991,202.157,314.424 M202.157,164.771c-9.78-0.888-19.283,0.754-28.087,4.549
									c-8.962,3.863-17.173,9.943-24.172,17.809c-7.096,7.975-12.912,17.745-16.969,28.813
									c-4.089,11.154-6.364,23.549-6.364,36.619c0,13.069,2.275,25.466,6.364,36.625c4.058,11.071,9.873,20.848,16.969,28.829
									c6.999,7.872,15.209,13.961,24.172,17.832c8.805,3.805,18.307,5.455,28.087,4.576c9.589-0.86,18.55-4.077,26.557-9.1
									c7.874-4.938,14.853-11.642,20.634-19.616c5.71-7.876,10.28-17.031,13.411-27.025c3.11-9.927,4.821-20.742,4.821-32.054
									c0-11.311-1.711-22.128-4.821-32.058c-3.131-9.998-7.701-19.158-13.411-27.039c-5.782-7.98-12.761-14.689-20.634-19.636
									C220.707,168.866,211.746,165.642,202.157,164.771"/>
								<path id="svg_10" fill="#414042" d="M202.157,422.085c-19.054,3.313-37.915,1.666-55.704-4.396
									c-18.427-6.279-35.597-17.258-50.458-32.208c-15.282-15.375-27.971-34.799-36.913-57.271
									c-9.088-22.839-14.177-48.503-14.177-75.69c0-27.188,5.089-52.846,14.177-75.677c8.942-22.464,21.63-41.875,36.913-57.235
									c14.861-14.937,32.031-25.897,50.458-32.159c17.789-6.044,36.65-7.674,55.704-4.342
									c18.337,3.207,35.174,10.722,49.979,21.374c14.345,10.321,26.886,23.661,37.154,39.055
									c10.035,15.045,17.991,32.19,23.404,50.644c5.347,18.225,8.275,37.932,8.275,58.473c0,20.541-2.928,40.246-8.275,58.464
									c-5.414,18.449-13.369,35.587-23.404,50.622c-10.268,15.384-22.809,28.711-37.154,39.019
									C237.331,411.398,220.494,418.897,202.157,422.085 M202.157,72.606c-20.259-3.761-40.36-2.249-59.365,3.986
									c-19.731,6.473-38.159,17.993-54.142,33.812c-16.467,16.299-30.165,36.988-39.831,61.003
									c-9.835,24.436-15.349,51.942-15.349,81.108c0,29.163,5.513,56.672,15.349,81.118c9.667,24.024,23.364,44.727,39.831,61.042
									c15.983,15.835,34.411,27.375,54.143,33.867c19.004,6.253,39.106,7.786,59.365,4.044
									c19.45-3.592,37.269-11.728,52.906-23.146c15.123-11.045,28.323-25.245,39.114-41.578
									c10.533-15.942,18.874-34.07,24.545-53.554c5.597-19.229,8.661-40.003,8.661-61.651c0-21.65-3.063-42.43-8.661-61.663
									c-5.671-19.488-14.012-37.625-24.545-53.576c-10.791-16.343-23.991-30.556-39.114-41.614
									C239.425,84.37,221.606,76.218,202.157,72.606"/>
								<path id="svg_11" fill="#414042" d="M202.157,360.087c-12.016,1.323-23.744-0.472-34.657-4.945
									c-11.155-4.572-21.415-11.929-30.192-21.55c-8.929-9.786-16.269-21.855-21.401-35.593
									c-5.183-13.871-8.071-29.319-8.071-45.625c0-16.308,2.888-31.755,8.071-45.621c5.133-13.73,12.473-25.792,21.401-35.568
									c8.778-9.61,19.038-16.952,30.192-21.511c10.913-4.46,22.641-6.239,34.657-4.9c11.728,1.307,22.64,5.465,32.353,11.783
									c9.515,6.191,17.921,14.482,24.864,24.269c6.839,9.64,12.299,20.786,16.034,32.909c3.705,12.022,5.74,25.095,5.74,38.752
									c0,13.656-2.035,26.723-5.74,38.74c-3.735,12.117-9.195,23.256-16.034,32.887c-6.942,9.775-15.349,18.057-24.864,24.233
									C224.797,354.652,213.885,358.796,202.157,360.087 M202.157,126.441c-14.112-1.838-27.943-0.009-40.864,5.007
									c-13.26,5.146-25.501,13.626-36.01,24.851c-10.723,11.454-19.563,25.683-25.759,41.958
									c-6.268,16.465-9.765,34.854-9.765,54.287c0,19.433,3.498,37.826,9.765,54.297c6.196,16.281,15.036,30.521,25.759,41.986
									c10.509,11.235,22.75,19.728,36.01,24.888c12.921,5.029,26.752,6.872,40.864,5.047c13.716-1.772,26.427-6.852,37.698-14.405
									c11.006-7.375,20.698-17.149,28.681-28.608c7.845-11.261,14.095-24.226,18.363-38.283
									c4.228-13.924,6.548-29.04,6.548-44.822c0-15.783-2.32-30.9-6.548-44.827c-4.268-14.062-10.518-27.031-18.363-38.298
									c-7.983-11.466-17.675-21.249-28.681-28.634C228.583,133.319,215.873,128.229,202.157,126.441"/>
								<path id="svg_12" fill="#414042" d="M202.157,393.593c-15.817,2.286-31.372,0.458-45.952-4.975
									c-15.01-5.593-28.911-14.978-40.878-27.513c-12.244-12.825-22.362-28.846-29.467-47.233
									c-7.199-18.634-11.221-39.481-11.221-61.531c0-22.045,4.022-42.888,11.221-61.509c7.104-18.379,17.223-34.383,29.467-47.192
									c11.967-12.52,25.869-21.885,40.878-27.458c14.58-5.413,30.135-7.222,45.952-4.914c15.32,2.235,29.472,8.13,41.985,16.74
									c12.186,8.384,22.889,19.391,31.687,32.221c8.629,12.583,15.492,27.015,20.173,42.622
									c4.632,15.441,7.172,32.179,7.172,49.642c0,17.465-2.541,34.202-7.172,49.638c-4.681,15.602-11.543,30.025-20.173,42.597
									c-8.798,12.819-19.501,23.812-31.687,32.182C231.629,385.501,217.477,391.377,202.157,393.593 M202.157,98.939
									c-17.242-2.734-34.247-0.979-50.23,4.733c-16.5,5.898-31.821,15.982-45.042,29.574
									c-13.557,13.938-24.783,31.438-32.679,51.603c-8.01,20.458-12.49,43.398-12.49,67.68s4.48,47.226,12.49,67.691
									c7.896,20.173,19.122,37.685,32.679,51.636c13.221,13.604,28.543,23.703,45.042,29.616c15.983,5.729,32.988,7.5,50.23,4.782
									c16.653-2.625,31.996-9.201,45.529-18.686c13.149-9.216,24.675-21.234,34.133-35.188
									c9.261-13.662,16.616-29.29,21.628-46.159c4.955-16.676,7.67-34.735,7.67-53.575c0-18.838-2.716-36.901-7.67-53.582
									c-5.012-16.873-12.367-32.509-21.628-46.18c-9.458-13.96-20.984-25.991-34.133-35.219
									C234.152,108.171,218.81,101.58,202.157,98.939"/>
								<path id="svg_13" fill="#414042" d="M202.559,441.014c-21.219,4.105-42.315,2.686-62.296-3.705
									c-20.785-6.646-40.231-18.624-57.125-35.162c-17.434-17.068-31.956-38.804-42.216-64.088
									c-10.449-25.751-16.311-54.769-16.311-85.546c0-30.778,5.862-59.791,16.311-85.53c10.26-25.274,24.782-46.993,42.216-64.042
									c16.894-16.522,36.34-28.48,57.125-35.105c19.981-6.369,41.077-7.77,62.296-3.645c20.331,3.953,38.924,12.628,55.216,24.699
									c15.732,11.657,29.445,26.573,40.642,43.676c10.918,16.676,19.557,35.602,25.427,55.91
									c5.79,20.033,8.958,41.66,8.958,64.186s-3.168,44.151-8.958,64.178c-5.87,20.304-14.508,39.222-25.427,55.89
									c-11.197,17.093-24.91,31.996-40.642,43.64C241.483,428.422,222.89,437.082,202.559,441.014 M344.85,74.331L0,0v506.129
									l344.85-74.33V74.331"/>
							</g>
						</g>
					</g>
				</g>
			</g>
		</g>
	</g>
</g>
<g id="svg_14">
	<g id="svg_15">
		<g id="svg_16">
			<g>
				<defs>
					<polygon id="SVGID_3_" points="214.607,214.396 214.607,204.038 223.607,204.082 223.607,214.352 					"/>
				</defs>
				<clipPath id="SVGID_4_">
					<use xlink:href="#SVGID_3_"  overflow="visible"/>
				</clipPath>
				<g id="svg_18" clip-path="url(#SVGID_4_)">
					<g id="svg_19">
						<g id="svg_20">
							<g id="svg_21">
								<path id="svg_22" fill="#ED1C24" d="M219.107,204.06c-0.568-0.003-1.11,0.139-1.604,0.398
									c-0.495,0.259-0.94,0.636-1.315,1.103c-0.375,0.467-0.679,1.024-0.89,1.643s-0.327,1.299-0.327,2.013
									c0,0.714,0.116,1.395,0.327,2.014c0.21,0.619,0.514,1.175,0.89,1.643c0.375,0.467,0.821,0.844,1.315,1.103
									c0.494,0.259,1.036,0.401,1.604,0.398c0.567-0.003,1.108-0.15,1.599-0.414c0.491-0.263,0.933-0.642,1.303-1.109
									c0.371-0.467,0.67-1.021,0.877-1.636c0.207-0.615,0.322-1.29,0.322-1.998s-0.115-1.383-0.322-1.998
									c-0.207-0.615-0.507-1.17-0.877-1.636c-0.371-0.467-0.812-0.846-1.303-1.109C220.215,204.21,219.675,204.063,219.107,204.06
									"/>
							</g>
						</g>
					</g>
				</g>
			</g>
		</g>
	</g>
</g>
<g id="svg_23">
	<g id="svg_24">
		<g id="svg_25">
			<g>
				<defs>
					<polygon id="SVGID_5_" points="713.607,260.195 713.607,245.099 725.607,245.191 725.607,260.102 					"/>
				</defs>
				<clipPath id="SVGID_6_">
					<use xlink:href="#SVGID_5_"  overflow="visible"/>
				</clipPath>
				<g id="svg_27" clip-path="url(#SVGID_6_)">
					<g id="svg_28">
						<g id="svg_29">
							<g id="svg_30">
								<path id="svg_31" fill="#ED1C24" d="M720.109,245.145c-0.829-0.006-1.62,0.198-2.341,0.573
									c-0.722,0.375-1.371,0.922-1.919,1.601c-0.547,0.679-0.989,1.49-1.297,2.392c-0.307,0.903-0.476,1.896-0.476,2.94
									c0,1.042,0.169,2.033,0.476,2.935c0.308,0.9,0.75,1.711,1.297,2.39c0.548,0.678,1.197,1.225,1.919,1.601
									c0.721,0.375,1.512,0.577,2.341,0.571c0.825-0.006,1.61-0.222,2.323-0.604s1.354-0.935,1.892-1.613
									c0.537-0.678,0.971-1.484,1.271-2.377c0.301-0.893,0.466-1.873,0.466-2.901c0-1.031-0.166-2.013-0.466-2.907
									s-0.732-1.701-1.271-2.379c-0.537-0.679-1.178-1.231-1.892-1.614C721.721,245.367,720.936,245.151,720.109,245.145"/>
							</g>
						</g>
					</g>
				</g>
			</g>
		</g>
	</g>
</g>
<rect id="svg_32" x="390.607" y="261.564" fill="none" width="119" height="27.5"/>
<g enable-background="new    ">
	<path fill="#414042" d="M448.998,269.325l-2.064,9.68c-0.367,1.734-1.139,3.152-2.317,4.254s-2.392,1.652-3.64,1.652
		c-0.688,0-1.192-0.131-1.516-0.393c-0.324-0.262-0.486-0.592-0.486-0.99c0-0.336,0.102-0.633,0.305-0.891s0.496-0.387,0.879-0.387
		c0.242,0,0.455,0.055,0.639,0.164s0.346,0.246,0.486,0.41c0.109,0.133,0.232,0.312,0.369,0.539s0.256,0.422,0.357,0.586
		c0.602-0.047,1.115-0.453,1.541-1.219s0.795-1.859,1.107-3.281l2.16-10.125h-2.289l0.246-1.066h2.257l0.169-0.795
		c0.188-0.905,0.484-1.72,0.891-2.445s0.867-1.342,1.383-1.849c0.508-0.499,1.084-0.891,1.729-1.176
		c0.645-0.284,1.264-0.427,1.857-0.427c0.688,0,1.193,0.131,1.518,0.393s0.486,0.592,0.486,0.99c0,0.336-0.096,0.633-0.288,0.891
		s-0.492,0.387-0.899,0.387c-0.244,0-0.455-0.053-0.636-0.158s-0.341-0.244-0.481-0.416c-0.157-0.195-0.283-0.379-0.377-0.551
		s-0.211-0.363-0.353-0.574c-0.541,0.023-1.02,0.378-1.435,1.064c-0.416,0.686-0.789,1.828-1.12,3.427l-0.263,1.239h2.957
		l-0.246,1.066H448.998z"/>
</g>
<g id="svg_34">
	<g id="svg_35">
		<g id="svg_36">
			<g>
				<defs>
					<polygon id="SVGID_7_" points="195.607,260.195 195.607,245.099 207.607,245.191 207.607,260.102 					"/>
				</defs>
				<clipPath id="SVGID_8_">
					<use xlink:href="#SVGID_7_"  overflow="visible"/>
				</clipPath>
				<g id="svg_38" clip-path="url(#SVGID_8_)">
					<g id="svg_39">
						<g id="svg_40">
							<g id="svg_41">
								<path id="svg_42" fill="#ED1C24" d="M202.107,245.145c-0.827-0.006-1.617,0.198-2.336,0.573
									c-0.721,0.375-1.37,0.922-1.917,1.601c-0.547,0.679-0.99,1.49-1.296,2.392c-0.307,0.903-0.476,1.896-0.476,2.94
									c0,1.042,0.169,2.033,0.476,2.935c0.306,0.9,0.749,1.711,1.296,2.39c0.546,0.678,1.196,1.225,1.917,1.601
									c0.719,0.375,1.509,0.579,2.336,0.571c0.826-0.006,1.612-0.222,2.326-0.604c0.713-0.384,1.355-0.935,1.893-1.613
									c0.538-0.679,0.973-1.484,1.273-2.377c0.3-0.893,0.466-1.873,0.466-2.901c0-1.031-0.166-2.013-0.466-2.907
									c-0.3-0.894-0.735-1.701-1.273-2.379c-0.538-0.679-1.18-1.231-1.893-1.614C203.719,245.367,202.933,245.151,202.107,245.145
									"/>
							</g>
						</g>
					</g>
				</g>
			</g>
		</g>
	</g>
</g>
<rect id="svg_43" x="141.274" y="213.033" fill="none" width="119" height="27.5"/>
<g enable-background="new    ">
	<path fill="#414042" d="M206.417,221.251c0,0.219-0.031,0.459-0.094,0.721s-0.152,0.479-0.27,0.65
		c-0.141,0.211-0.295,0.373-0.463,0.486s-0.408,0.17-0.721,0.17c-0.422,0-0.738-0.105-0.949-0.316s-0.316-0.445-0.316-0.703
		c0-0.242,0.059-0.514,0.176-0.814s0.238-0.6,0.363-0.896c-0.094,0-0.248,0.025-0.462,0.076c-0.215,0.051-0.474,0.15-0.778,0.3
		c-0.304,0.148-0.649,0.371-1.035,0.669c-0.385,0.297-0.796,0.692-1.233,1.185l-1.888,8.399h-2.186l1.709-7.603
		c0.039-0.188,0.095-0.469,0.17-0.845c0.074-0.375,0.111-0.653,0.111-0.833c0-0.438-0.075-0.73-0.223-0.88
		c-0.148-0.148-0.445-0.223-0.89-0.223c-0.172,0-0.39,0.029-0.656,0.088s-0.472,0.107-0.621,0.146l0.176-0.75
		c0.609-0.273,1.148-0.477,1.617-0.609s0.871-0.199,1.207-0.199c0.625,0,1.07,0.17,1.336,0.511c0.266,0.34,0.398,0.85,0.398,1.53
		h0.07c0.93-0.806,1.635-1.368,2.115-1.688c0.48-0.321,0.983-0.481,1.506-0.481c0.25,0,0.492,0.031,0.727,0.094
		s0.434,0.168,0.598,0.316c0.172,0.164,0.299,0.354,0.381,0.568S206.417,220.845,206.417,221.251z"/>
</g>
<polyline id="svg_45" fill="none" points="213.032,251.814 216.991,242.064 207.607,242.064 "/>
<line id="svg_46" fill="none" stroke="#ED1C24" stroke-width="4" stroke-miterlimit="10" x1="202.107" y1="252.647" x2="219.527" y2="208.918"/>
<line id="svg_47" fill="none" stroke="#ED1C24" stroke-width="4" stroke-miterlimit="10" x1="201.607" y1="252.564" x2="720.607" y2="252.564"/>
<line id="svg_48" fill="none" stroke="#ED1C24" stroke-width="4" stroke-miterlimit="10" x1="219.107" y1="209.218" x2="720.607" y2="252.564"/>
<rect id="svg_49" x="394.607" y="202.564" fill="none" width="119" height="27.5"/>
<g enable-background="new    ">
	<path fill="#414042" d="M457.729,202.743l-3.276,14.109c-0.07,0.297-0.137,0.594-0.2,0.891c-0.062,0.297-0.094,0.539-0.094,0.727
		c0,0.445,0.1,0.75,0.299,0.914s0.521,0.246,0.965,0.246c0.156,0,0.389-0.02,0.696-0.059s0.54-0.086,0.696-0.141l-0.176,0.75
		c-0.703,0.281-1.244,0.48-1.623,0.598s-0.807,0.176-1.283,0.176c-0.625,0-1.1-0.162-1.424-0.486
		c-0.324-0.325-0.486-0.726-0.486-1.202c0-0.18,0.018-0.367,0.053-0.563c0.035-0.195,0.084-0.441,0.146-0.738l2.855-12.348
		c0.055-0.243,0.093-0.411,0.112-0.505c0.019-0.094,0.029-0.211,0.029-0.352c0-0.281-0.048-0.498-0.142-0.651
		c-0.094-0.152-0.228-0.268-0.4-0.346c-0.164-0.07-0.372-0.117-0.623-0.141c-0.252-0.023-0.507-0.051-0.766-0.082l0.164-0.715
		l4.359-0.258L457.729,202.743z"/>
</g>
</svg>
